<svg xmlns="http://www.w3.org/2000/svg" viewBox="0 0 512 512">
  <defs>
    <linearGradient id="bg" x1="0%" y1="0%" x2="100%" y2="100%">
      <stop offset="0%" style="stop-color:#10b981"/>
      <stop offset="100%" style="stop-color:#059669"/>
    </linearGradient>
  </defs>
  <rect width="512" height="512" rx="80" fill="url(#bg)"/>
  <g fill="white">
    <!-- Code brackets -->
    <path d="M180 140 L120 256 L180 372" stroke="white" stroke-width="28" fill="none" stroke-linecap="round" stroke-linejoin="round"/>
    <path d="M332 140 L392 256 L332 372" stroke="white" stroke-width="28" fill="none" stroke-linecap="round" stroke-linejoin="round"/>
    <!-- AI Brain in center -->
    <circle cx="256" cy="256" r="80" fill="white" opacity="0.9"/>
    <circle cx="256" cy="256" r="60" fill="#10b981"/>
    <!-- Neural network dots -->
    <circle cx="236" cy="236" r="8" fill="white"/>
    <circle cx="276" cy="236" r="8" fill="white"/>
    <circle cx="226" cy="266" r="6" fill="white" opacity="0.7"/>
    <circle cx="286" cy="266" r="6" fill="white" opacity="0.7"/>
    <circle cx="256" cy="286" r="8" fill="white"/>
    <circle cx="256" cy="220" r="6" fill="white" opacity="0.7"/>
    <!-- Connection lines -->
    <line x1="236" y1="236" x2="256" y2="256" stroke="white" stroke-width="2" opacity="0.5"/>
    <line x1="276" y1="236" x2="256" y2="256" stroke="white" stroke-width="2" opacity="0.5"/>
    <line x1="256" y1="286" x2="256" y2="256" stroke="white" stroke-width="2" opacity="0.5"/>
    <!-- Magnifying glass -->
    <circle cx="380" cy="140" r="50" stroke="white" stroke-width="16" fill="none"/>
    <line x1="415" y1="175" x2="460" y2="220" stroke="white" stroke-width="16" stroke-linecap="round"/>
  </g>
</svg>
